# xmcd
# 
# Track frame offsets:
#     150
#     14850
#     32817
#     53447
#     70217
#     89855
#     109402
#     129240
#     146287
#     163827
#     180175
#     200250
# 
# Disc length: 2908
# 
# Revision: 1
# Processed by: cddbd v1.5.2PL0 Copyright (c) Steve Scherf et al.
# Submitted via: fre:ac v1.0.27
# 
DISCID=a50b5a0c
DTITLE=曾心梅 - 幫你打／原曲新唱系列 2
DYEAR=1999
DGENRE=POP
TTITLE0=感情放一邊
TTITLE1=你著忍耐
TTITLE2=不想伊
TTITLE3=香港戀情
TTITLE4=相思海
TTITLE5=風醉雨也醉
TTITLE6=返來阮身邊
TTITLE7=相思夢
TTITLE8=一個紅蛋
TTITLE9=傷心酒店
TTITLE10=苦酒的探戈
TTITLE11=藝界人生
EXTD=
EXTT0=
EXTT1=
EXTT2=
EXTT3=
EXTT4=
EXTT5=
EXTT6=
EXTT7=
EXTT8=
EXTT9=
EXTT10=
EXTT11=
PLAYORDER=
